# Alias OBJ Model File
# Exported from SketchUp, (c) 2000-2012 Trimble Navigation Limited
# File units = meters

mtllib explosion.mtl

g Mesh1 Model

usemtl explosion
v -3.60956e-016 -0.258819 0.965926
vt -5.87206 2.35982
vn 1 9.56634e-017 -7.78518e-018
v -3.60956e-016 0.258819 0.965926
vt -5.87206 2.628
v -3.60956e-016 0 1
vt -5.8853 2.49391
f 1/1/1 2/2/1 3/3/1

v -3.60956e-016 0.5 0.866025
vt -5.83324 2.75295
f 2/2/1 1/1/1 4/4/1

vn -1 -9.56634e-017 7.78518e-018
f 3/3/2 2/2/2 1/1/2

f 4/4/2 1/1/2 2/2/2

v -3.60956e-016 -0.5 0.866025
vt -5.83324 2.23486
f 4/4/1 1/1/1 5/5/1

f 5/5/2 1/1/2 4/4/2

v -3.60956e-016 0.707107 0.707107
vt -5.77149 2.86025
f 4/4/1 5/5/1 6/6/1

f 6/6/2 5/5/2 4/4/2

v 0 -0.707107 0.707107
vt -5.77149 2.12756
f 6/6/1 5/5/1 7/7/1

f 7/7/2 5/5/2 6/6/2

v -3.60956e-016 0.866025 0.5
vt -5.69102 2.94259
f 6/6/1 7/7/1 8/8/1

f 8/8/2 7/7/2 6/6/2

v 0 -0.866025 0.5
vt -5.69102 2.04523
f 8/8/1 7/7/1 9/9/1

f 9/9/2 7/7/2 8/8/2

v 0 0.965926 0.258819
vt -5.5973 2.99434
f 8/8/1 9/9/1 10/10/1

f 10/10/2 9/9/2 8/8/2

v -3.60956e-016 -0.965926 0.258819
vt -5.5973 1.99347
f 10/10/1 9/9/1 11/11/1

f 11/11/2 9/9/2 10/10/2

v -3.60956e-016 1 -0
vt -5.49673 3.012
f 10/10/1 11/11/1 12/12/1

f 12/12/2 11/11/2 10/10/2

v 0 -1 -0
vt -5.49673 1.97582
f 12/12/1 11/11/1 13/13/1

f 13/13/2 11/11/2 12/12/2

v -3.60956e-016 -0.965926 -0.258819
vt -5.39617 1.99347
f 12/12/1 13/13/1 14/14/1

f 14/14/2 13/13/2 12/12/2

v -3.60956e-016 0.965926 -0.258819
vt -5.39617 2.99434
f 12/12/1 14/14/1 15/15/1

f 15/15/2 14/14/2 12/12/2

v -3.60956e-016 0.866025 -0.5
vt -5.30245 2.94259
f 15/15/1 14/14/1 16/16/1

f 16/16/2 14/14/2 15/15/2

v 0 -0.866025 -0.5
vt -5.30245 2.04523
f 16/16/1 14/14/1 17/17/1

f 17/17/2 14/14/2 16/16/2

v 0 -0.707107 -0.707107
vt -5.22198 2.12756
f 16/16/1 17/17/1 18/18/1

f 18/18/2 17/17/2 16/16/2

v -3.60956e-016 0.707107 -0.707107
vt -5.22198 2.86025
f 16/16/1 18/18/1 19/19/1

f 19/19/2 18/18/2 16/16/2

v -3.60956e-016 -0.5 -0.866025
vt -5.16023 2.23486
f 19/19/1 18/18/1 20/20/1

f 20/20/2 18/18/2 19/19/2

v -3.60956e-016 0.5 -0.866025
vt -5.16022 2.75295
f 19/19/1 20/20/1 21/21/1

f 21/21/2 20/20/2 19/19/2

v -3.60956e-016 -0.258819 -0.965926
vt -5.12141 2.35982
f 21/21/1 20/20/1 22/22/1

f 22/22/2 20/20/2 21/21/2

v -3.60956e-016 0.258819 -0.965926
vt -5.12141 2.628
f 21/21/1 22/22/1 23/23/1

f 23/23/2 22/22/2 21/21/2

v -3.60956e-016 2.44929e-016 -1
vt -5.10817 2.49391
f 23/23/1 22/22/1 24/24/1

f 24/24/2 22/22/2 23/23/2

g Mesh2 Model

v -0.258819 -0.965926 -5.86553e-016
vt -5.40827 0.0173716
vn 9.56782e-018 5.6223e-016 -1
v 0.258819 -0.965926 -6.31672e-016
vt -5.60324 0.0173716
vt -5.50575 0.000259625
f 25/25/3 26/26/3 13/27/3

v 0.5 -0.866025 -4.96314e-016
vt -5.69408 0.0675412
f 26/26/3 25/25/3 27/28/3

vn -9.56782e-018 -5.6223e-016 1
f 13/27/4 26/26/4 25/25/4

f 27/28/4 25/25/4 26/26/4

v -0.5 -0.866025 -4.96314e-016
vt -5.31743 0.0675412
f 27/28/3 25/25/3 28/29/3

f 28/29/4 25/25/4 27/28/4

v 0.707107 -0.707107 -4.96314e-016
vt -5.77208 0.14735
f 27/28/3 28/29/3 29/30/3

f 29/30/4 28/29/4 27/28/4

v -0.707107 -0.707107 -7.67031e-016
vt -5.23942 0.14735
f 29/30/3 28/29/3 30/31/3

f 30/31/4 28/29/4 29/30/4

v 0.866025 -0.5 -4.06075e-016
vt -5.83194 0.251358
f 29/30/3 30/31/3 31/32/3

f 31/32/4 30/31/4 29/30/4

v -0.866025 -0.5 -4.06075e-016
vt -5.17957 0.251358
f 31/32/3 30/31/3 32/33/3

f 32/33/4 30/31/4 31/32/4

v 0.965926 -0.258819 -1.80478e-016
vt -5.86957 0.372478
f 31/32/3 32/33/3 33/34/3

f 33/34/4 32/33/4 31/32/4

v -0.965926 -0.258819 -1.80478e-016
vt -5.14194 0.372478
f 33/34/3 32/33/3 34/35/3

f 34/35/4 32/33/4 33/34/4

v 1 0 -0
vt -5.8824 0.502457
f 33/34/3 34/35/3 35/36/3

f 35/36/4 34/35/4 33/34/4

v -1 1.22465e-016 -0
vt -5.12911 0.502456
f 35/36/3 34/35/3 36/37/3

f 36/37/4 34/35/4 35/36/4

v 0.965926 0.258819 1.35358e-016
vt -5.86957 0.632435
f 35/36/3 36/37/3 37/38/3

f 37/38/4 36/37/4 35/36/4

v -0.965926 0.258819 1.80478e-016
vt -5.14194 0.632434
f 37/38/3 36/37/3 38/39/3

f 38/39/4 36/37/4 37/38/4

v 0.866025 0.5 3.15836e-016
vt -5.83194 0.753555
f 37/38/3 38/39/3 39/40/3

f 39/40/4 38/39/4 37/38/4

v -0.866025 0.5 4.06075e-016
vt -5.17957 0.753554
f 39/40/3 38/39/3 40/41/3

f 40/41/4 38/39/4 39/40/4

v 0.707107 0.707107 5.86553e-016
vt -5.77208 0.857563
f 39/40/3 40/41/3 41/42/3

f 41/42/4 40/41/4 39/40/4

v -0.707107 0.707107 5.86553e-016
vt -5.23942 0.857563
f 41/42/3 40/41/3 42/43/3

f 42/43/4 40/41/4 41/42/4

v -0.5 0.866025 4.06075e-016
vt -5.31743 0.937371
f 41/42/3 42/43/3 43/44/3

f 43/44/4 42/43/4 41/42/4

v 0.5 0.866025 4.96314e-016
vt -5.69408 0.937372
f 41/42/3 43/44/3 44/45/3

f 44/45/4 43/44/4 41/42/4

v 0.258819 0.965926 6.76792e-016
vt -5.60324 0.987541
f 44/45/3 43/44/3 45/46/3

f 45/46/4 43/44/4 44/45/4

v -0.258819 0.965926 6.31672e-016
vt -5.40827 0.987541
f 45/46/3 43/44/3 46/47/3

f 46/47/4 43/44/4 45/46/4

vt -5.50575 1.00465
f 45/46/3 46/47/3 12/48/3

f 12/48/4 46/47/4 45/46/4

g Mesh3 Model

v -0.98635 0 -0.164664
vt 3.85227 0.583101
vn 0 -1 -0
v -0.936536 0 0.350571
vt 3.83384 0.328817
v -0.995359 0 0.0962327
vt 3.85561 0.45434
f 47/49/5 48/50/5 49/51/5

v -0.910122 0 -0.414339
vt 3.82406 0.706323
f 48/50/5 47/49/5 50/52/5

vn -0 1 0
f 49/51/6 48/50/6 47/49/6

f 50/52/6 47/49/6 48/50/6

v -0.81389 0 0.581019
vt 3.78844 0.215084
f 48/50/5 50/52/5 51/53/5

f 51/53/6 50/52/6 48/50/6

v -0.771872 0 -0.635778
vt 3.77289 0.81561
f 51/53/5 50/52/5 52/54/5

f 52/54/6 50/52/6 51/53/6

v -0.635778 0 0.771872
vt 3.72251 0.120892
f 51/53/5 52/54/5 53/55/5

f 53/55/6 52/54/6 51/53/6

v -0.581019 0 -0.81389
vt 3.70224 0.903513
f 53/55/5 52/54/5 54/56/5

f 54/56/6 52/54/6 53/55/6

v -0.414339 0 0.910122
vt 3.64055 0.0526614
f 53/55/5 54/56/5 55/57/5

f 55/57/6 54/56/6 53/55/6

v -0.350571 0 -0.936536
vt 3.61694 0.964043
f 55/57/5 54/56/5 56/58/5

f 56/58/6 54/56/6 55/57/6

v -0.164664 0 0.98635
vt 3.54813 0.0150409
f 55/57/5 56/58/5 57/59/5

f 57/59/6 56/58/6 55/57/6

v -0.0962327 0 -0.995359
vt 3.5228 0.993074
f 57/59/5 56/58/5 58/60/5

f 58/60/6 56/58/6 57/59/6

v 0.0962327 0 0.995359
vt 3.45156 0.0105946
f 57/59/5 58/60/5 59/61/5

f 59/61/6 58/60/6 57/59/6

v 0.164664 0 -0.98635
vt 3.42623 0.988628
f 59/61/5 58/60/5 60/62/5

f 60/62/6 58/60/6 59/61/6

v 0.350571 0 0.936536
vt 3.35742 0.0396255
f 59/61/5 60/62/5 61/63/5

f 61/63/6 60/62/6 59/61/6

v 0.414339 0 -0.910122
vt 3.33381 0.951008
f 61/63/5 60/62/5 62/64/5

f 62/64/6 60/62/6 61/63/6

v 0.581019 0 0.81389
vt 3.27212 0.100155
f 61/63/5 62/64/5 63/65/5

f 63/65/6 62/64/6 61/63/6

v 0.635778 0 -0.771872
vt 3.25185 0.882777
f 63/65/5 62/64/5 64/66/5

f 64/66/6 62/64/6 63/65/6

v 0.771872 0 0.635778
vt 3.20147 0.188059
f 63/65/5 64/66/5 65/67/5

f 65/67/6 64/66/6 63/65/6

v 0.81389 0 -0.581019
vt 3.18592 0.788585
f 65/67/5 64/66/5 66/68/5

f 66/68/6 64/66/6 65/67/6

v 0.910122 0 0.414339
vt 3.1503 0.297345
f 65/67/5 66/68/5 67/69/5

f 67/69/6 66/68/6 65/67/6

v 0.936536 0 -0.350571
vt 3.14052 0.674852
f 67/69/5 66/68/5 68/70/5

f 68/70/6 66/68/6 67/69/6

v 0.98635 0 0.164664
vt 3.12208 0.420568
f 67/69/5 68/70/5 69/71/5

f 69/71/6 68/70/6 67/69/6

v 0.995359 0 -0.0962327
vt 3.11875 0.549328
f 69/71/5 68/70/5 70/72/5

f 70/72/6 68/70/6 69/71/6

